<svg xmlns="http://www.w3.org/2000/svg" fill="none" viewBox="0 0 49 32" height="32" width="49">
<rect fill="white" rx="3.5" height="31" width="46.9996" y="0.5" x="1.41504"></rect>
<rect stroke="#E3ECF8" rx="3.5" height="31" width="46.9996" y="0.5" x="1.41504"></rect>
<path fill="black" d="M13.1866 11.8181C13.4895 11.8231 13.7894 11.7576 14.0627 11.6269C14.3361 11.4963 14.5753 11.304 14.7616 11.0651C15.1597 10.5858 15.3577 9.97161 15.3146 9.3501C14.7072 9.4079 14.1463 9.70071 13.7516 10.1661C13.5532 10.3906 13.4012 10.6522 13.3042 10.9357C13.2072 11.2192 13.1673 11.5191 13.1866 11.8181ZM20.3246 19.9671V10.1031H23.9816C24.4106 10.084 24.8388 10.155 25.2387 10.3115C25.6385 10.4679 26.0012 10.7064 26.3033 11.0115C26.6054 11.3167 26.8403 11.6817 26.9927 12.0831C27.1452 12.4845 27.212 12.9133 27.1886 13.3421C27.2086 13.7749 27.138 14.2071 26.9813 14.611C26.8247 15.015 26.5854 15.3817 26.2788 15.6878C25.9722 15.994 25.605 16.2327 25.2009 16.3887C24.7967 16.5448 24.3644 16.6147 23.9316 16.5941H21.8376V19.9661L20.3246 19.9671ZM15.3056 11.9381C14.8214 11.9388 14.3432 12.0467 13.9056 12.2541C13.7088 12.3494 13.4977 12.4116 13.2806 12.4381C13.0544 12.4131 12.8341 12.3491 12.6296 12.2491C12.2891 12.0865 11.9196 11.9937 11.5426 11.9761C11.0934 11.9888 10.6555 12.1194 10.2727 12.3548C9.88989 12.5901 9.57571 12.922 9.36163 13.3171C8.42363 14.9491 9.11763 17.3661 10.0246 18.6951C10.4686 19.3531 10.9996 20.0741 11.6996 20.0491C11.9637 20.0319 12.2218 19.9622 12.4586 19.8441C12.7591 19.6952 13.0893 19.6163 13.4246 19.6131C13.7468 19.616 14.064 19.693 14.3516 19.8381C14.6019 19.9681 14.8796 20.0367 15.1616 20.0381C15.8866 20.0251 16.3426 19.3801 16.7866 18.7221C17.0976 18.2592 17.3404 17.7541 17.5076 17.2221V17.2101L17.4906 17.2021C17.0738 17.015 16.7198 16.7113 16.4715 16.3278C16.2231 15.9442 16.0908 15.4971 16.0906 15.0401C16.0942 14.6355 16.1991 14.2382 16.3956 13.8845C16.5921 13.5308 16.874 13.2319 17.2156 13.0151L17.2346 13.0021C17.0175 12.6874 16.7303 12.4275 16.3955 12.2428C16.0607 12.0582 15.6876 11.9539 15.3056 11.9381ZM29.9506 20.0431C30.4015 20.054 30.8469 19.9427 31.2396 19.7211C31.6324 19.4994 31.9579 19.1757 32.1816 18.7841H32.2146V19.9671H33.6146V15.0571C33.6146 13.6331 32.4896 12.7161 30.7576 12.7161C29.1516 12.7161 27.9636 13.6461 27.9196 14.9241H29.2826C29.3592 14.6116 29.5465 14.3374 29.8099 14.1524C30.0732 13.9674 30.3946 13.8842 30.7146 13.9181C31.6396 13.9181 32.1586 14.3551 32.1586 15.1581V15.7021L30.2706 15.8161C28.5146 15.9241 27.5636 16.6511 27.5636 17.9161C27.5656 18.2174 27.6308 18.5149 27.755 18.7895C27.8792 19.064 28.0596 19.3095 28.2846 19.5099C28.5095 19.7104 28.7741 19.8614 29.061 19.9532C29.348 20.0451 29.6511 20.0757 29.9506 20.0431ZM30.3566 18.8721C29.5506 18.8721 29.0376 18.4801 29.0376 17.8791C29.0376 17.2591 29.5316 16.8981 30.4756 16.8411L32.1566 16.7331V17.2901C32.1482 17.5142 32.0942 17.7342 31.9979 17.9367C31.9017 18.1392 31.7652 18.32 31.5967 18.4681C31.4283 18.6161 31.2315 18.7283 31.0183 18.7977C30.8051 18.8672 30.5799 18.8925 30.3566 18.8721ZM38.2576 20.3501C37.6516 22.0771 36.9576 22.6501 35.4826 22.6501C35.2903 22.6509 35.0982 22.6382 34.9076 22.6121V21.4291C35.0016 21.4421 35.2326 21.4541 35.3516 21.4541C35.6541 21.475 35.9534 21.3811 36.1897 21.1911C36.426 21.0011 36.5821 20.729 36.6266 20.4291L36.7636 19.9921L34.2006 12.8111H35.7816L37.5626 18.6381H37.5936L39.3746 12.8111H40.9146L38.2576 20.3501ZM21.8376 11.3911H23.5816C23.852 11.3553 24.1269 11.3805 24.3863 11.4647C24.6457 11.549 24.8829 11.6902 25.0806 11.878C25.2783 12.0659 25.4315 12.2955 25.5289 12.5503C25.6263 12.805 25.6655 13.0783 25.6436 13.3501C25.6648 13.6224 25.6248 13.896 25.5267 14.1509C25.4285 14.4058 25.2747 14.6355 25.0764 14.8234C24.8781 15.0112 24.6404 15.1524 24.3806 15.2366C24.1208 15.3208 23.8454 15.3459 23.5746 15.3101H21.8366L21.8376 11.3911Z" clip-rule="evenodd" fill-rule="evenodd"></path>
</svg>
