<svg xmlns="http://www.w3.org/2000/svg" fill="none" viewBox="0 0 49 32" height="32" width="49">
<rect fill="black" rx="4" height="32" width="48" x="0.914062"></rect>
<path fill="white" d="M23.9618 10.2983H21.8418V22.2033H23.9618V10.2983Z"></path>
<path fill="white" d="M27.9022 14.3223H25.7822V22.2033H27.9022V14.3223Z"></path>
<path fill="white" d="M37.4367 22.1983L34.2307 18.0243L37.1697 14.3173H34.6697L31.8477 17.9073V10.2983H29.7227V22.1983H31.8427V18.1413L34.6647 22.1983H37.4367Z"></path>
<path fill="white" d="M16.4156 14.2223C15.7513 14.2186 15.0972 14.3853 14.5156 14.7063V10.2983H12.3916V18.2623C12.3934 19.0597 12.6316 19.8387 13.076 20.5008C13.5205 21.1628 14.1513 21.6782 14.8887 21.9818C15.6261 22.2853 16.4369 22.3634 17.2187 22.2062C18.0004 22.0489 18.718 21.6634 19.2806 21.0984C19.8433 20.5333 20.2258 19.8141 20.3797 19.0317C20.5337 18.2493 20.4522 17.4388 20.1455 16.7027C19.8388 15.9667 19.3208 15.338 18.6569 14.8963C17.993 14.4547 17.213 14.2208 16.4156 14.2223ZM16.4156 20.1663C16.0398 20.1663 15.6725 20.0549 15.36 19.8461C15.0476 19.6374 14.804 19.3406 14.6602 18.9934C14.5164 18.6463 14.4788 18.2642 14.5521 17.8957C14.6254 17.5271 14.8064 17.1886 15.0721 16.9228C15.3378 16.6571 15.6764 16.4762 16.0449 16.4028C16.4135 16.3295 16.7955 16.3672 17.1427 16.511C17.4899 16.6548 17.7866 16.8983 17.9954 17.2108C18.2042 17.5232 18.3156 17.8906 18.3156 18.2663C18.318 18.5165 18.2705 18.7647 18.1759 18.9963C18.0812 19.2279 17.9414 19.4383 17.7645 19.6152C17.5876 19.7921 17.3771 19.932 17.1455 20.0266C16.9139 20.1212 16.6658 20.1687 16.4156 20.1663Z"></path>
<path fill="#ED1C24" d="M18.5022 13.4884C19.5444 13.4884 20.3892 12.6435 20.3892 11.6014C20.3892 10.5592 19.5444 9.71436 18.5022 9.71436C17.4601 9.71436 16.6152 10.5592 16.6152 11.6014C16.6152 12.6435 17.4601 13.4884 18.5022 13.4884Z"></path>
</svg>
