<svg xmlns="http://www.w3.org/2000/svg" fill="none" viewBox="0 0 48 32" height="32" width="48">
<rect fill="white" rx="3.5" height="31" width="46.9148" y="0.5" x="0.585449"></rect>
<rect stroke="#E3ECF8" rx="3.5" height="31" width="46.9148" y="0.5" x="0.585449"></rect>
<path fill="#3C4043" d="M22.8042 19.7091V15.8531H24.7942C25.1751 15.8615 25.5538 15.794 25.9083 15.6546C26.2628 15.5152 26.5861 15.3066 26.8592 15.0411L26.9942 14.9041C27.4854 14.3677 27.7465 13.6599 27.7212 12.933C27.696 12.2061 27.3865 11.5181 26.8592 11.0171C26.5884 10.7474 26.2659 10.5352 25.911 10.3931C25.5562 10.251 25.1764 10.1819 24.7942 10.1901H21.5942V19.7101L22.8042 19.7091ZM22.8042 14.6831V11.3581H24.8262C25.2577 11.3564 25.6723 11.5258 25.9792 11.8291C26.2919 12.1402 26.4708 12.5611 26.4777 13.0021C26.4846 13.4431 26.319 13.8694 26.0162 14.1901C25.8643 14.3521 25.6795 14.4798 25.4743 14.5648C25.2692 14.6498 25.0482 14.6901 24.8262 14.6831H22.8042ZM32.6142 13.7041C32.0304 13.2002 31.2743 12.9419 30.5042 12.9831C30.0014 12.9523 29.4992 13.0531 29.0472 13.2754C28.5951 13.4978 28.2088 13.834 27.9262 14.2511L28.9892 14.9271C29.1566 14.6566 29.3917 14.4344 29.6713 14.2827C29.9508 14.131 30.2652 14.0549 30.5832 14.0621C31.0119 14.0632 31.4251 14.2227 31.7432 14.5101C31.8986 14.6451 32.0231 14.812 32.1084 14.9994C32.1936 15.1867 32.2375 15.3903 32.2372 15.5961V15.8771C31.692 15.5967 31.084 15.4607 30.4712 15.4821C29.7511 15.444 29.04 15.656 28.4582 16.0821C28.214 16.2715 28.0182 16.516 27.8868 16.7957C27.7554 17.0754 27.6921 17.3822 27.7022 17.6911C27.6944 17.9937 27.7544 18.2943 27.878 18.5706C28.0016 18.847 28.1855 19.0922 28.4162 19.2881C28.9047 19.7183 29.5387 19.9464 30.1892 19.9261C30.5895 19.9299 30.9837 19.8288 31.3328 19.633C31.6819 19.4373 31.9737 19.1536 32.1792 18.8101H32.2312V19.7101H33.3832V15.6931C33.4041 15.3259 33.3463 14.9585 33.2137 14.6155C33.081 14.2725 32.8767 13.9617 32.6142 13.7041ZM29.3442 18.5091C29.2195 18.4165 29.1182 18.2958 29.0487 18.1568C28.9793 18.0179 28.9435 17.8645 28.9442 17.7091C28.9453 17.5324 28.9903 17.3587 29.0751 17.2037C29.1599 17.0487 29.282 16.9172 29.4302 16.8211C29.7912 16.5753 30.2208 16.4503 30.6572 16.4641C31.2176 16.4238 31.7743 16.5824 32.2292 16.9121C32.2296 17.1658 32.1763 17.4166 32.0729 17.6482C31.9695 17.8798 31.8183 18.087 31.6292 18.2561C31.4525 18.4362 31.2416 18.5792 31.009 18.6769C30.7763 18.7746 30.5266 18.825 30.2742 18.8251C29.9371 18.8308 29.6085 18.7195 29.3442 18.5101V18.5091ZM35.9742 22.5711L40.0002 13.1951H38.6902L36.8262 17.8721H36.8042L34.8962 13.1961H33.5862L36.2262 19.2881L34.7262 22.5681L35.9742 22.5711Z" clip-rule="evenodd" fill-rule="evenodd"></path>
<path fill="#4285F4" d="M18.6451 15.0182C18.6452 14.647 18.6151 14.2764 18.5551 13.9102H13.4751V16.0102H16.3861C16.3274 16.3456 16.2016 16.6657 16.0164 16.9514C15.8312 17.2371 15.5903 17.4826 15.3081 17.6732V19.0402H17.0441C17.5753 18.5175 17.992 17.89 18.2677 17.1976C18.5433 16.5051 18.6718 15.7629 18.6451 15.0182Z"></path>
<path fill="#34A853" d="M13.4746 20.3623C14.7899 20.3978 16.0683 19.9247 17.0436 19.0413L15.3076 17.6753C14.764 18.0322 14.1246 18.215 13.4746 18.1993C12.7979 18.1877 12.1421 17.9637 11.5996 17.559C11.0572 17.1544 10.6556 16.5896 10.4516 15.9443H8.66357V17.3563C9.1053 18.2562 9.78994 19.0147 10.6401 19.5459C11.4903 20.0771 12.4721 20.3599 13.4746 20.3623Z"></path>
<path fill="#FBBC04" d="M10.4516 15.9443C10.2261 15.2625 10.2261 14.5262 10.4516 13.8443V12.4443H8.66256C8.28301 13.2053 8.08545 14.044 8.08545 14.8943C8.08545 15.7447 8.28301 16.5834 8.66256 17.3443L10.4516 15.9443Z"></path>
<path fill="#EA4335" d="M13.4746 11.5939C13.856 11.5869 14.2349 11.6558 14.5894 11.7966C14.944 11.9373 15.2669 12.1472 15.5396 12.4139L17.0806 10.8499C16.1085 9.92581 14.8148 9.4165 13.4736 9.42995C12.4704 9.43395 11.4884 9.71829 10.6383 10.2509C9.78817 10.7834 9.10386 11.5431 8.6626 12.4439L10.4506 13.8559C10.6531 13.209 11.0542 12.6423 11.597 12.2362C12.1399 11.8302 12.7968 11.6055 13.4746 11.5939Z"></path>
</svg>
