<svg xmlns="http://www.w3.org/2000/svg" fill="none" viewBox="0 0 49 32" height="32" width="49">
<rect fill="white" rx="3.5" height="31" width="47" y="0.5" x="1.41406"></rect>
<rect stroke="#E3ECF8" rx="3.5" height="31" width="47" y="0.5" x="1.41406"></rect>
<path fill="#ED0006" d="M27.9752 16.1001C27.9555 17.8188 27.4278 19.4933 26.4585 20.9128C25.4893 22.3323 24.1218 23.4333 22.5282 24.0774C20.9346 24.7214 19.1861 24.8797 17.5027 24.5322C15.8194 24.1848 14.2764 23.3472 13.068 22.1248C11.8597 20.9024 11.0399 19.3499 10.7119 17.6627C10.3839 15.9754 10.5623 14.2288 11.2246 12.6428C11.887 11.0567 13.0038 9.702 14.4343 8.74918C15.8649 7.79636 17.5454 7.288 19.2642 7.28809C21.5879 7.30157 23.811 8.23753 25.4446 9.89008C27.0782 11.5426 27.9885 13.7764 27.9752 16.1001Z"></path>
<path fill="#F9A000" d="M39.2769 16.1001C39.2572 17.8188 38.7295 19.4933 37.7603 20.9128C36.791 22.3323 35.4235 23.4333 33.8299 24.0774C32.2363 24.7214 30.4878 24.8797 28.8045 24.5322C27.1211 24.1848 25.5782 23.3472 24.3698 22.1248C23.1614 20.9024 22.3416 19.3499 22.0136 17.6627C21.6856 15.9754 21.864 14.2288 22.5264 12.6428C23.1888 11.0567 24.3055 9.702 25.7361 8.74918C27.1667 7.79636 28.8471 7.288 30.5659 7.28809C32.8896 7.30157 35.1128 8.23753 36.7464 9.89008C38.38 11.5426 39.2902 13.7764 39.2769 16.1001Z"></path>
<path fill="#FF5E00" d="M24.9142 9.39307C25.875 10.2266 26.6455 11.2567 27.1736 12.4139C27.7016 13.571 27.9749 14.8281 27.9749 16.1001C27.9749 17.372 27.7016 18.6291 27.1736 19.7862C26.6455 20.9434 25.875 21.9736 24.9142 22.8071C23.9534 21.9736 23.1829 20.9434 22.6548 19.7862C22.1268 18.6291 21.8535 17.372 21.8535 16.1001C21.8535 14.8281 22.1268 13.571 22.6548 12.4139C23.1829 11.2567 23.9534 10.2266 24.9142 9.39307Z" clip-rule="evenodd" fill-rule="evenodd"></path>
</svg>
