<svg xmlns="http://www.w3.org/2000/svg" fill="none" viewBox="0 0 49 32" height="32" width="49">
<rect fill="white" rx="3.5" height="31" width="47" y="0.5" x="1.41406"></rect>
<rect stroke="#E3ECF8" rx="3.5" height="31" width="47" y="0.5" x="1.41406"></rect>
<path fill="#172B85" d="M17.0954 20.9122H14.3894L12.3594 13.1682C12.3223 12.9971 12.2498 12.8357 12.1464 12.6945C12.0431 12.5532 11.9112 12.4353 11.7594 12.3482C10.9768 11.9546 10.1399 11.68 9.27637 11.5332V11.2332H13.6364C13.9093 11.2321 14.1735 11.3294 14.3807 11.5071C14.5878 11.6849 14.724 11.9313 14.7644 12.2012L15.8174 17.7872L18.5224 11.2332H21.1544L17.0954 20.9122ZM22.6594 20.9122H20.1034L22.2034 11.2312H24.7594L22.6594 20.9122ZM28.0714 13.9122C28.1132 13.6689 28.2444 13.45 28.4391 13.2984C28.6339 13.1467 28.8783 13.0732 29.1244 13.0922C29.9765 13.0157 30.8335 13.1701 31.6054 13.5392L32.0564 11.4552C31.3139 11.1654 30.5244 11.0152 29.7274 11.0122C27.2464 11.0122 25.4404 12.3532 25.4404 14.2122C25.4404 15.6282 26.7194 16.3712 27.6224 16.8192C28.5994 17.2662 28.9754 17.5642 28.8994 18.0102C28.8994 18.6802 28.1474 18.9782 27.3994 18.9782C26.4895 18.9662 25.5925 18.7617 24.7674 18.3782L24.3164 20.4642C25.2014 20.8158 26.1461 20.9928 27.0984 20.9852C29.8804 21.0592 31.6094 19.7192 31.6094 17.7082C31.6064 15.1822 28.0764 15.0342 28.0764 13.9172L28.0714 13.9122ZM40.5524 20.9122L38.5224 11.2312H36.3424C36.1118 11.2333 35.8874 11.3057 35.6992 11.4389C35.5111 11.572 35.368 11.7595 35.2894 11.9762L31.5314 20.9122H34.1634L34.6884 19.4972H37.9214L38.2214 20.9122H40.5524ZM36.7194 13.8422L37.4704 17.4912H35.3704L36.7194 13.8422Z" clip-rule="evenodd" fill-rule="evenodd"></path>
</svg>
