<?xml version="1.0" encoding="UTF-8"?>
<svg id="Warstwa_2" data-name="Warstwa 2" xmlns="http://www.w3.org/2000/svg" viewBox="0 0 2251.5 2143.71">
  <defs>
    <style>
      .cls-1 {
        fill: #d72638;
      }

      .cls-2 {
        fill: #f1737f;
      }

      .cls-3 {
        fill: none;
        stroke: #0a3864;
        stroke-linecap: round;
        stroke-linejoin: round;
        stroke-width: 28px;
      }

      .cls-4 {
        opacity: .5;
      }
    </style>
  </defs>
  <g id="_Ñëîé_1" data-name=" Ñëîé 1" class="cls-4">
    <g>
      <path class="cls-3" d="M2127.02,1297.94l-689.32,689.33"/>
      <path class="cls-3" d="M829.59,14L48.68,794.91"/>
      <path class="cls-3" d="M2162.17,1362.06l-625.3,625.3"/>
      <path class="cls-3" d="M928.53,14.34L97.16,845.72"/>
      <path class="cls-3" d="M2210.07,1413.45l-570.55,570.55"/>
      <path class="cls-3" d="M983.03,59.13L120.81,921.35"/>
      <path class="cls-3" d="M2210.48,1512.34l-488.41,488.41"/>
      <path class="cls-3" d="M988.77,152.66L135.72,1005.72"/>
      <path class="cls-3" d="M1962.12,1859.97l-198.66,198.66M2237.5,1584.6l-72.81,72.81"/>
      <path class="cls-3" d="M1032.2,208.53L111.95,1128.77"/>
      <path class="cls-3" d="M1907.06,2014.32l-63.42,63.42"/>
      <path class="cls-3" d="M1091.65,248.35L165.43,1174.58"/>
      <path class="cls-3" d="M1945.53,2075.14l-47.36,47.36"/>
      <path class="cls-3" d="M1201.66,237.63L167.49,1271.8"/>
      <path class="cls-3" d="M1999.63,2120.31l-9.4,9.4"/>
      <path class="cls-3" d="M1376.83,161.75L215.58,1323"/>
      <path class="cls-3" d="M1442.04,195.82L162.12,1475.74"/>
      <path class="cls-3" d="M1525.1,212.03L279.57,1457.57"/>
      <path class="cls-3" d="M1621.61,214.81L313.04,1523.38"/>
      <path class="cls-3" d="M1726.55,209.16L396.4,1539.31"/>
      <path class="cls-3" d="M1841.62,193.37L472.04,1562.95"/>
      <path class="cls-3" d="M1944.73,189.55L476.3,1657.97"/>
      <path class="cls-3" d="M2012.07,221.48L541.79,1691.76"/>
      <path class="cls-3" d="M641.07,1691.78l-48.47,48.47M2059.45,273.39L681.49,1651.35"/>
      <path class="cls-3" d="M2100.13,331.99L729.33,1702.8"/>
      <path class="cls-3" d="M2093.23,438.18L789.34,1742.07"/>
      <path class="cls-3" d="M2116.81,513.89L843.35,1787.35"/>
      <path class="cls-3" d="M2169.31,560.67L923.54,1806.43"/>
      <path class="cls-3" d="M2180.99,648.27L990.52,1838.73"/>
      <path class="cls-3" d="M2038.24,890.3l-995.49,995.5M2189.87,738.67l-47.49,47.49"/>
      <path class="cls-3" d="M2047.82,980l-982.44,982.44"/>
      <path class="cls-3" d="M115.14,331.32l-60.93,60.93"/>
      <path class="cls-3" d="M2111.51,1015.6l-969.94,969.93"/>
      <path class="cls-3" d="M91.68,454.06l-35.03,35.03M252.97,292.77l-124.59,124.59"/>
      <path class="cls-3" d="M2110.49,1115.9l-854.06,854.06"/>
      <path class="cls-3" d="M410.79,234.23L75.21,569.82"/>
      <path class="cls-3" d="M2106.77,1218.91l-803.38,803.38"/>
      <path class="cls-3" d="M678.83,65.48L14,730.31"/>
    </g>
  </g>
  <g>
    <path class="cls-2" d="M1254.11,1781.78c-38.23,0-69.33-31.1-69.33-69.33s31.1-69.33,69.33-69.33,69.33,31.1,69.33,69.33-31.1,69.33-69.33,69.33Z"/>
    <path class="cls-1" d="M1254.11,1656.11c31.11,0,56.33,25.22,56.33,56.33s-25.22,56.33-56.33,56.33-56.33-25.22-56.33-56.33,25.22-56.33,56.33-56.33M1254.11,1630.11c-45.4,0-82.33,36.93-82.33,82.33s36.93,82.33,82.33,82.33,82.33-36.93,82.33-82.33-36.93-82.33-82.33-82.33h0Z"/>
  </g>
</svg>