<?xml version="1.0" encoding="utf-8"?>
<svg version="1.1" id="Ñëîé_1" xmlns="http://www.w3.org/2000/svg" xmlns:xlink="http://www.w3.org/1999/xlink" fill="#F1737F" x="0px" y="0px"
	 viewBox="0 600 2500 700" xml:space="preserve">
<g>
	<g>
		<rect x="617.842" y="771.205" width="25.541" height="25.542"/>
		<rect x="656.155" y="771.205" width="25.542" height="25.542"/>
		<rect x="694.468" y="771.205" width="38.312" height="25.542"/>
		<rect x="745.551" y="771.205" width="38.312" height="25.542"/>
		<rect x="796.635" y="771.205" width="12.771" height="25.542"/>
		<rect x="822.176" y="771.205" width="12.771" height="25.542"/>
		<rect x="909.532" y="771.205" width="38.312" height="25.542"/>
		<rect x="962.656" y="771.205" width="12.771" height="25.542"/>
		<rect x="988.197" y="771.205" width="12.771" height="25.542"/>
		<rect x="1013.739" y="771.205" width="63.855" height="25.542"/>
		<rect x="1090.364" y="771.205" width="63.855" height="25.542"/>
		<rect x="1179.76" y="771.205" width="12.771" height="25.542"/>
		<rect x="1218.073" y="771.205" width="38.312" height="25.542"/>
		<rect x="1269.156" y="771.205" width="12.771" height="25.542"/>
		<rect x="1307.469" y="771.205" width="51.084" height="25.542"/>
		<rect x="1371.323" y="771.205" width="51.084" height="25.542"/>
		<rect x="1435.177" y="771.205" width="25.542" height="25.542"/>
		<rect x="1486.261" y="771.205" width="25.541" height="25.542"/>
		<rect x="1524.573" y="771.205" width="38.313" height="25.542"/>
		<rect x="1575.657" y="771.205" width="12.771" height="25.542"/>
		<rect x="1626.892" y="771.205" width="25.541" height="25.542"/>
		<rect x="1652.282" y="771.205" width="51.084" height="25.542"/>
		<rect x="1741.678" y="771.205" width="25.541" height="25.542"/>
		<rect x="1779.991" y="771.205" width="25.542" height="25.542"/>
		<rect x="1843.845" y="771.205" width="12.771" height="25.542"/>
		<rect x="1869.387" y="771.205" width="12.771" height="25.542"/>
		<rect x="617.842" y="796.747" width="25.541" height="25.542"/>
		<rect x="656.155" y="796.747" width="25.542" height="25.542"/>
		<rect x="694.468" y="796.747" width="25.542" height="25.542"/>
		<rect x="745.551" y="796.747" width="51.083" height="25.542"/>
		<rect x="809.405" y="796.747" width="25.541" height="25.542"/>
		<rect x="860.489" y="796.747" width="25.541" height="25.542"/>
		<rect x="924.343" y="796.747" width="12.771" height="25.542"/>
		<rect x="962.656" y="796.747" width="38.312" height="25.542"/>
		<rect x="1026.51" y="796.747" width="25.541" height="25.542"/>
		<rect x="1064.823" y="796.747" width="38.312" height="25.542"/>
		<rect x="1128.677" y="796.747" width="12.771" height="25.542"/>
		<rect x="1179.76" y="796.747" width="12.771" height="25.541"/>
		<rect x="1218.073" y="796.747" width="25.541" height="25.542"/>
		<rect x="1269.156" y="796.747" width="12.771" height="25.542"/>
		<rect x="1307.469" y="796.747" width="51.084" height="25.542"/>
		<rect x="1409.636" y="796.747" width="12.771" height="25.542"/>
		<rect x="1460.719" y="796.747" width="12.771" height="25.541"/>
		<rect x="1486.261" y="796.747" width="12.771" height="25.542"/>
		<rect x="1524.573" y="796.747" width="25.542" height="25.542"/>
		<rect x="1562.886" y="796.747" width="12.771" height="25.542"/>
		<rect x="1588.428" y="796.747" width="38.312" height="25.542"/>
		<rect x="1665.053" y="796.747" width="12.771" height="25.542"/>
		<rect x="1741.678" y="796.747" width="25.541" height="25.542"/>
		<rect x="1792.762" y="796.747" width="12.771" height="25.541"/>
		<rect x="1843.845" y="796.747" width="12.771" height="25.542"/>
		<rect x="1869.387" y="796.747" width="12.771" height="25.542"/>
		<rect x="617.842" y="822.289" width="25.541" height="25.542"/>
		<rect x="656.155" y="822.289" width="25.542" height="25.542"/>
		<rect x="694.468" y="822.289" width="12.771" height="25.542"/>
		<rect x="745.551" y="822.289" width="25.542" height="25.542"/>
		<rect x="783.864" y="822.289" width="12.771" height="25.542"/>
		<rect x="809.405" y="822.289" width="76.625" height="25.542"/>
		<rect x="924.343" y="822.289" width="12.771" height="25.542"/>
		<rect x="962.656" y="822.289" width="25.541" height="25.542"/>
		<rect x="1000.968" y="822.289" width="12.771" height="25.542"/>
		<rect x="1052.052" y="822.289" width="12.771" height="25.542"/>
		<rect x="1077.593" y="822.289" width="63.854" height="25.542"/>
		<rect x="1197.896" y="822.289" width="12.771" height="25.541"/>
		<rect x="1218.073" y="822.289" width="25.541" height="25.542"/>
		<rect x="1269.156" y="822.289" width="25.542" height="25.542"/>
		<rect x="1307.469" y="822.289" width="12.771" height="25.542"/>
		<rect x="1333.011" y="822.289" width="12.771" height="25.541"/>
		<rect x="1358.553" y="822.289" width="25.541" height="25.542"/>
		<rect x="1422.407" y="822.289" width="63.855" height="25.542"/>
		<rect x="1524.573" y="822.289" width="12.771" height="25.542"/>
		<rect x="1550.115" y="822.289" width="25.542" height="25.542"/>
		<rect x="1588.428" y="822.289" width="12.771" height="25.542"/>
		<rect x="1677.824" y="822.289" width="38.313" height="25.542"/>
		<rect x="1741.678" y="822.289" width="38.312" height="25.542"/>
		<rect x="1818.958" y="822.289" width="12.771" height="25.541"/>
		<rect x="1843.845" y="822.289" width="12.771" height="25.542"/>
		<rect x="1869.387" y="822.289" width="12.771" height="25.542"/>
		<rect x="349.654" y="847.831" width="12.771" height="12.771"/>
		<rect x="375.145" y="847.831" width="25.542" height="12.771"/>
		<rect x="439.05" y="847.831" width="25.542" height="12.771"/>
		<rect x="515.676" y="847.831" width="12.771" height="12.771"/>
		<rect x="541.217" y="847.831" width="12.771" height="12.771"/>
		<rect x="592.3" y="847.831" width="12.771" height="12.771"/>
		<rect x="617.842" y="847.831" width="12.771" height="12.771"/>
		<rect x="656.155" y="847.831" width="25.542" height="12.771"/>
		<rect x="720.009" y="847.831" width="25.542" height="12.771"/>
		<rect x="758.322" y="847.831" width="51.083" height="12.771"/>
		<rect x="822.176" y="847.831" width="25.542" height="12.771"/>
		<rect x="873.26" y="847.831" width="12.771" height="12.771"/>
		<rect x="911.572" y="847.831" width="51.084" height="12.771"/>
		<rect x="975.427" y="847.831" width="25.541" height="12.771"/>
		<rect x="1013.739" y="847.831" width="12.771" height="12.771"/>
		<rect x="1052.052" y="847.831" width="12.771" height="12.771"/>
		<rect x="1090.364" y="847.831" width="38.312" height="12.771"/>
		<rect x="1154.219" y="847.831" width="12.771" height="12.771"/>
		<rect x="1179.76" y="847.831" width="12.771" height="12.771"/>
		<rect x="1230.844" y="847.831" width="12.771" height="12.771"/>
		<rect x="1269.156" y="847.831" width="38.313" height="12.771"/>
		<rect x="1320.24" y="847.831" width="12.771" height="12.771"/>
		<rect x="1384.094" y="847.831" width="38.313" height="12.771"/>
		<rect x="1435.177" y="847.831" width="12.771" height="12.771"/>
		<rect x="1473.49" y="847.831" width="38.313" height="12.771"/>
		<rect x="1537.344" y="847.831" width="12.771" height="12.771"/>
		<rect x="1575.657" y="847.831" width="12.771" height="12.771"/>
		<rect x="1639.511" y="847.831" width="25.541" height="12.771"/>
		<rect x="1677.824" y="847.831" width="12.771" height="12.771"/>
		<rect x="1703.366" y="847.831" width="25.541" height="12.771"/>
		<rect x="1767.22" y="847.831" width="12.77" height="12.771"/>
		<rect x="1792.762" y="847.831" width="12.771" height="12.771"/>
		<rect x="1856.615" y="847.831" width="12.772" height="12.771"/>
		<rect x="1882.158" y="847.831" width="12.771" height="12.771"/>
		<rect x="1920.47" y="847.831" width="51.084" height="12.771"/>
		<rect x="1984.324" y="847.831" width="25.542" height="12.771"/>
		<rect x="2035.408" y="847.831" width="38.313" height="12.771"/>
		<rect x="2112.033" y="847.831" width="12.771" height="12.771"/>
		<rect x="2137.575" y="847.831" width="12.771" height="12.771"/>
		<rect x="324.113" y="860.601" width="25.542" height="268.188"/>
		<rect x="375.145" y="860.476" width="12.771" height="268.188"/>
		<rect x="400.738" y="860.601" width="38.312" height="268.188"/>
		<rect x="464.592" y="860.601" width="51.084" height="268.188"/>
		<rect x="528.446" y="860.601" width="12.771" height="268.188"/>
		<rect x="553.988" y="860.601" width="38.313" height="268.188"/>
		<rect x="605.072" y="860.601" width="12.771" height="268.188"/>
		<rect x="630.613" y="860.601" width="25.542" height="268.188"/>
		<rect x="681.697" y="860.601" width="38.313" height="268.188"/>
		<rect x="745.551" y="860.601" width="12.771" height="268.188"/>
		<rect x="809.405" y="860.601" width="12.771" height="268.188"/>
		<rect x="847.718" y="860.601" width="25.542" height="268.188"/>
		<rect x="886.03" y="860.601" width="25.542" height="268.188"/>
		<rect x="962.656" y="860.601" width="12.771" height="268.188"/>
		<rect x="1000.968" y="860.601" width="12.771" height="268.188"/>
		<rect x="1026.51" y="860.601" width="25.542" height="268.188"/>
		<rect x="1090.364" y="860.601" width="25.542" height="268.188"/>
		<rect x="1128.676" y="860.601" width="25.542" height="268.188"/>
		<rect x="1166.989" y="860.601" width="12.771" height="268.188"/>
		<rect x="1192.531" y="860.601" width="38.313" height="268.188"/>
		<rect x="1243.614" y="860.601" width="25.542" height="268.188"/>
		<rect x="1307.469" y="860.601" width="12.771" height="268.188"/>
		<rect x="1333.011" y="860.601" width="51.083" height="268.188"/>
		<rect x="1422.407" y="860.601" width="12.771" height="268.188"/>
		<rect x="1447.948" y="860.601" width="25.541" height="268.188"/>
		<rect x="1511.802" y="860.601" width="25.542" height="268.188"/>
		<rect x="1550.115" y="860.601" width="25.542" height="268.188"/>
		<rect x="1588.428" y="860.601" width="51.083" height="268.188"/>
		<rect x="1665.053" y="860.601" width="12.771" height="268.188"/>
		<rect x="1690.595" y="860.601" width="12.771" height="268.188"/>
		<rect x="1728.907" y="860.601" width="38.313" height="268.188"/>
		<rect x="1779.99" y="860.601" width="12.772" height="268.188"/>
		<rect x="1805.532" y="860.601" width="51.083" height="268.188"/>
		<rect x="1869.387" y="860.601" width="12.771" height="268.188"/>
		<rect x="1894.928" y="860.601" width="25.541" height="268.188"/>
		<rect x="1971.554" y="860.601" width="12.771" height="268.188"/>
		<rect x="2009.866" y="860.601" width="25.542" height="268.188"/>
		<rect x="2073.72" y="860.601" width="38.313" height="268.188"/>
		<rect x="2124.804" y="860.601" width="12.771" height="268.188"/>
		<rect x="2150.346" y="860.601" width="25.542" height="268.188"/>
	</g>
	<g style="enable-background:new    ;">
		<path d="M841.411,1228.795c-4.357-5.498-8.042-11.931-11.053-19.3c-3.012-7.369-4.518-15.001-4.518-22.897
			c0-6.958,1.126-13.626,3.377-20.002c2.632-7.398,6.696-14.767,12.194-22.108h5.659c-3.538,6.084-5.873,10.428-7.018,13.028
			c-1.778,4.038-3.188,8.247-4.211,12.632c-1.258,5.469-1.886,10.967-1.886,16.494c0,14.065,4.371,28.116,13.115,42.152H841.411z"/>
		<path d="M883.783,1209.89h-7.895v-50.311c-1.901,1.813-4.394,3.626-7.478,5.439c-3.086,1.813-5.857,3.172-8.313,4.079v-7.633
			c4.415-2.075,8.274-4.591,11.58-7.544c3.304-2.953,5.643-5.82,7.018-8.597h5.088V1209.89z"/>
		<path d="M945.5,1202.301v7.589h-42.504c-0.059-1.901,0.256-3.726,0.921-5.483c1.094-2.891,2.814-5.746,5.198-8.554
			c2.382-2.807,5.829-6.05,10.33-9.737c6.992-5.727,11.712-10.271,14.168-13.62c2.456-3.348,3.685-6.514,3.685-9.496
			c0-3.129-1.119-5.769-3.356-7.917c-2.237-2.15-5.154-3.225-8.75-3.225c-3.802,0-6.843,1.141-9.125,3.422
			c-2.28,2.281-3.436,5.439-3.465,9.475l-8.114-0.833c0.555-6.053,2.646-10.666,6.272-13.84c3.625-3.172,8.495-4.758,14.606-4.758
			c6.17,0,11.054,1.711,14.652,5.131c3.596,3.421,5.395,7.661,5.395,12.72c0,2.574-0.526,5.103-1.58,7.589
			c-1.052,2.485-2.8,5.102-5.241,7.851c-2.442,2.75-6.5,6.522-12.172,11.317c-4.737,3.978-7.778,6.675-9.123,8.093
			c-1.346,1.418-2.457,2.844-3.333,4.277H945.5z"/>
		<path d="M961.335,1228.795h-5.658c8.743-14.036,13.115-28.087,13.115-42.152c0-5.497-0.629-10.951-1.886-16.361
			c-0.994-4.387-2.398-8.591-4.167-12.633c-1.15-2.628-3.495-7.019-7.062-13.16h5.658c5.497,7.34,9.563,14.71,12.195,22.108
			c2.251,6.376,3.377,13.043,3.377,20.002c0,7.897-1.512,15.528-4.539,22.897C969.341,1216.864,965.662,1223.296,961.335,1228.795z"
			/>
		<path d="M1024.85,1161.333l-7.852,0.614c-0.702-3.099-1.685-5.362-2.983-6.755c-2.116-2.269-4.766-3.377-7.895-3.377
			c-2.515,0-4.723,0.702-6.623,2.106c-2.486,1.813-4.446,4.459-5.879,7.939c-1.433,3.48-2.178,8.437-2.237,14.871
			c1.901-2.896,4.226-5.044,6.974-6.448c2.748-1.404,5.629-2.106,8.642-2.106c5.263,0,9.745,1.938,13.443,5.812
			c3.7,3.875,5.549,8.882,5.549,15.023c0,4.035-0.871,7.786-2.609,11.251c-1.741,3.465-4.131,6.119-7.172,7.96
			c-3.041,1.844-6.491,2.765-10.351,2.765c-6.581,0-11.946-2.419-16.099-7.26c-4.152-4.838-6.229-12.815-6.229-23.927
			c0-12.428,2.296-21.463,6.888-27.107c4.005-4.913,9.401-7.369,16.185-7.369c5.059,0,9.203,1.418,12.436,4.255
			C1022.268,1152.414,1024.205,1156.333,1024.85,1161.333z M992.609,1189.055c0,2.72,0.577,5.322,1.733,7.807
			c1.155,2.486,2.771,4.379,4.848,5.681c2.076,1.302,4.255,1.952,6.535,1.952c3.334,0,6.199-1.344,8.597-4.035
			c2.398-2.691,3.597-6.346,3.597-10.967c0-4.445-1.185-7.946-3.553-10.506c-2.369-2.558-5.351-3.837-8.948-3.837
			c-3.567,0-6.594,1.279-9.08,3.837C993.852,1181.547,992.609,1184.902,992.609,1189.055z"/>
		<path d="M1045.991,1175.018c-3.274-1.199-5.701-2.91-7.281-5.132c-1.578-2.223-2.368-4.883-2.368-7.983
			c0-4.678,1.681-8.612,5.045-11.799c3.362-3.187,7.836-4.781,13.422-4.781c5.614,0,10.132,1.629,13.553,4.891
			c3.422,3.26,5.132,7.23,5.132,11.908c0,2.982-0.783,5.578-2.347,7.786c-1.565,2.208-3.941,3.911-7.128,5.11
			c3.948,1.287,6.952,3.363,9.014,6.228c2.061,2.867,3.092,6.288,3.092,10.264c0,5.498-1.946,10.118-5.834,13.861
			c-3.89,3.744-9.008,5.615-15.352,5.615c-6.346,0-11.464-1.879-15.352-5.636c-3.89-3.757-5.834-8.445-5.834-14.059
			c0-4.181,1.06-7.683,3.18-10.506C1039.054,1177.965,1042.073,1176.042,1045.991,1175.018z M1041.868,1191.335
			c0,2.253,0.534,4.43,1.602,6.536c1.066,2.106,2.654,3.736,4.758,4.891c2.106,1.156,4.371,1.733,6.8,1.733
			c3.772,0,6.886-1.213,9.342-3.64c2.457-2.427,3.685-5.513,3.685-9.256c0-3.801-1.266-6.945-3.794-9.431
			c-2.531-2.485-5.697-3.727-9.497-3.727c-3.714,0-6.792,1.228-9.233,3.684C1043.09,1184.58,1041.868,1187.651,1041.868,1191.335z
			 M1044.413,1161.639c0,3.043,0.979,5.527,2.939,7.457c1.959,1.93,4.503,2.896,7.632,2.896c3.041,0,5.534-0.958,7.479-2.873
			c1.944-1.915,2.917-4.262,2.917-7.04c0-2.895-1.003-5.33-3.004-7.303c-2.003-1.974-4.496-2.961-7.479-2.961
			c-3.012,0-5.512,0.964-7.5,2.895C1045.407,1156.64,1044.413,1158.95,1044.413,1161.639z"/>
		<path d="M1084.328,1154.008v-7.589h41.626v6.141c-4.094,4.358-8.151,10.148-12.172,17.37c-4.021,7.224-7.128,14.65-9.32,22.283
			c-1.58,5.38-2.589,11.273-3.027,17.677h-8.116c0.088-5.059,1.082-11.17,2.983-18.336c1.9-7.163,4.627-14.072,8.18-20.724
			c3.553-6.653,7.332-12.26,11.339-16.822H1084.328z"/>
		<path d="M1133.762,1193.046l8.29-0.702c0.614,4.035,2.04,7.07,4.277,9.102c2.237,2.032,4.934,3.049,8.093,3.049
			c3.801,0,7.018-1.433,9.649-4.299c2.632-2.865,3.948-6.667,3.948-11.404c0-4.503-1.265-8.055-3.794-10.658
			c-2.529-2.603-5.841-3.904-9.935-3.904c-2.544,0-4.84,0.577-6.886,1.733c-2.047,1.155-3.656,2.653-4.825,4.496l-7.412-0.966
			l6.229-33.029h31.976v7.545h-25.66l-3.465,17.282c3.86-2.691,7.909-4.035,12.15-4.035c5.615,0,10.352,1.944,14.212,5.834
			c3.86,3.888,5.79,8.89,5.79,15.001c0,5.82-1.696,10.85-5.088,15.09c-4.123,5.204-9.753,7.807-16.887,7.807
			c-5.85,0-10.623-1.637-14.322-4.913C1136.401,1202.799,1134.289,1198.456,1133.762,1193.046z"/>
		<path d="M1183.767,1192.915l7.896-1.053c0.906,4.475,2.448,7.698,4.627,9.673c2.178,1.973,4.832,2.961,7.961,2.961
			c3.714,0,6.85-1.287,9.409-3.861c2.558-2.573,3.837-5.761,3.837-9.561c0-3.626-1.184-6.616-3.553-8.971
			c-2.368-2.354-5.38-3.531-9.035-3.531c-1.492,0-3.349,0.293-5.57,0.878l0.876-6.931c0.526,0.059,0.95,0.088,1.273,0.088
			c3.362,0,6.389-0.878,9.08-2.632c2.69-1.755,4.035-4.459,4.035-8.116c0-2.894-0.98-5.292-2.939-7.194
			c-1.96-1.901-4.489-2.851-7.589-2.851c-3.07,0-5.629,0.964-7.676,2.895c-2.047,1.93-3.362,4.824-3.948,8.685l-7.895-1.404
			c0.966-5.292,3.158-9.395,6.58-12.305c3.421-2.908,7.676-4.363,12.765-4.363c3.508,0,6.739,0.753,9.694,2.258
			c2.953,1.508,5.213,3.561,6.776,6.164c1.564,2.603,2.347,5.366,2.347,8.29c0,2.779-0.745,5.308-2.237,7.588
			c-1.492,2.281-3.699,4.095-6.624,5.439c3.802,0.878,6.755,2.698,8.861,5.462c2.105,2.763,3.157,6.221,3.157,10.373
			c0,5.615-2.047,10.373-6.14,14.278c-4.094,3.903-9.271,5.855-15.528,5.855c-5.644,0-10.33-1.681-14.059-5.045
			C1186.421,1202.623,1184.294,1198.266,1183.767,1192.915z"/>
		<path d="M1263.424,1209.89h-7.895v-50.311c-1.901,1.813-4.394,3.626-7.478,5.439c-3.086,1.813-5.857,3.172-8.313,4.079v-7.633
			c4.415-2.075,8.274-4.591,11.58-7.544c3.304-2.953,5.643-5.82,7.018-8.597h5.088V1209.89z"/>
		<path d="M1308.955,1209.89v-15.396h-27.898v-7.238l29.345-41.671h6.448v41.671h8.685v7.238h-8.685v15.396H1308.955z
			 M1308.955,1187.256v-28.994l-20.134,28.994H1308.955z"/>
		<path d="M1333.605,1193.046l8.29-0.702c0.614,4.035,2.04,7.07,4.277,9.102c2.237,2.032,4.934,3.049,8.093,3.049
			c3.801,0,7.017-1.433,9.649-4.299c2.632-2.865,3.948-6.667,3.948-11.404c0-4.503-1.265-8.055-3.794-10.658
			c-2.529-2.603-5.841-3.904-9.935-3.904c-2.544,0-4.84,0.577-6.886,1.733c-2.047,1.155-3.656,2.653-4.825,4.496l-7.412-0.966
			l6.229-33.029h31.976v7.545h-25.66l-3.465,17.282c3.86-2.691,7.91-4.035,12.15-4.035c5.615,0,10.352,1.944,14.212,5.834
			c3.86,3.888,5.79,8.89,5.79,15.001c0,5.82-1.696,10.85-5.088,15.09c-4.123,5.204-9.753,7.807-16.887,7.807
			c-5.85,0-10.623-1.637-14.322-4.913C1336.244,1202.799,1334.132,1198.456,1333.605,1193.046z"/>
		<path d="M1384.751,1195.02l7.588-0.702c0.643,3.567,1.871,6.156,3.684,7.764c1.813,1.608,4.138,2.413,6.974,2.413
			c2.427,0,4.555-0.556,6.382-1.667c1.828-1.111,3.326-2.595,4.496-4.453c1.169-1.856,2.149-4.364,2.939-7.523
			c0.79-3.158,1.185-6.374,1.185-9.649c0-0.352-0.016-0.878-0.045-1.58c-1.578,2.516-3.735,4.555-6.469,6.119
			c-2.735,1.565-5.695,2.347-8.883,2.347c-5.322,0-9.825-1.93-13.509-5.79c-3.685-3.86-5.527-8.949-5.527-15.265
			c0-6.521,1.922-11.771,5.769-15.747c3.844-3.977,8.663-5.965,14.452-5.965c4.181,0,8.005,1.125,11.47,3.377
			c3.466,2.253,6.098,5.461,7.895,9.628c1.799,4.167,2.699,10.198,2.699,18.094c0,8.217-0.893,14.759-2.676,19.628
			c-1.784,4.87-4.437,8.576-7.961,11.12c-3.524,2.544-7.654,3.817-12.391,3.817c-5.03,0-9.139-1.396-12.326-4.189
			C1387.309,1204.006,1385.394,1200.079,1384.751,1195.02z M1417.078,1166.641c0-4.533-1.207-8.13-3.62-10.791
			c-2.411-2.661-5.315-3.992-8.706-3.992c-3.509,0-6.565,1.434-9.168,4.299c-2.603,2.867-3.904,6.579-3.904,11.141
			c0,4.094,1.236,7.42,3.706,9.98c2.472,2.558,5.519,3.837,9.147,3.837c3.655,0,6.659-1.279,9.013-3.837
			C1415.901,1174.718,1417.078,1171.173,1417.078,1166.641z"/>
		<path d="M1434.054,1154.008v-7.589h41.626v6.141c-4.095,4.358-8.151,10.148-12.172,17.37c-4.021,7.224-7.128,14.65-9.32,22.283
			c-1.58,5.38-2.589,11.273-3.027,17.677h-8.116c0.088-5.059,1.082-11.17,2.983-18.336c1.9-7.163,4.627-14.072,8.18-20.724
			c3.552-6.653,7.332-12.26,11.339-16.822H1434.054z"/>
		<path d="M1483.531,1192.915l7.896-1.053c0.905,4.475,2.448,7.698,4.627,9.673c2.178,1.973,4.832,2.961,7.961,2.961
			c3.714,0,6.849-1.287,9.409-3.861c2.558-2.573,3.838-5.761,3.838-9.561c0-3.626-1.183-6.616-3.553-8.971
			c-2.368-2.354-5.38-3.531-9.035-3.531c-1.492,0-3.349,0.293-5.57,0.878l0.876-6.931c0.526,0.059,0.95,0.088,1.273,0.088
			c3.362,0,6.389-0.878,9.08-2.632c2.689-1.755,4.035-4.459,4.035-8.116c0-2.894-0.98-5.292-2.939-7.194
			c-1.96-1.901-4.49-2.851-7.59-2.851c-3.07,0-5.63,0.964-7.676,2.895c-2.047,1.93-3.362,4.824-3.948,8.685l-7.895-1.404
			c0.966-5.292,3.158-9.395,6.579-12.305c3.422-2.908,7.676-4.363,12.765-4.363c3.508,0,6.739,0.753,9.694,2.258
			c2.953,1.508,5.212,3.561,6.776,6.164c1.564,2.603,2.347,5.366,2.347,8.29c0,2.779-0.745,5.308-2.237,7.588
			c-1.492,2.281-3.699,4.095-6.624,5.439c3.802,0.878,6.755,2.698,8.861,5.462c2.106,2.763,3.158,6.221,3.158,10.373
			c0,5.615-2.047,10.373-6.14,14.278c-4.095,3.903-9.271,5.855-15.528,5.855c-5.644,0-10.33-1.681-14.059-5.045
			C1486.185,1202.623,1484.058,1198.266,1483.531,1192.915z"/>
		<path d="M1574.943,1202.301v7.589h-42.504c-0.059-1.901,0.256-3.726,0.921-5.483c1.094-2.891,2.814-5.746,5.198-8.554
			c2.383-2.807,5.829-6.05,10.33-9.737c6.992-5.727,11.711-10.271,14.167-13.62c2.456-3.348,3.685-6.514,3.685-9.496
			c0-3.129-1.119-5.769-3.356-7.917c-2.237-2.15-5.155-3.225-8.751-3.225c-3.802,0-6.843,1.141-9.125,3.422
			c-2.28,2.281-3.436,5.439-3.465,9.475l-8.114-0.833c0.555-6.053,2.646-10.666,6.272-13.84c3.625-3.172,8.495-4.758,14.606-4.758
			c6.17,0,11.054,1.711,14.652,5.131c3.596,3.421,5.395,7.661,5.395,12.72c0,2.574-0.526,5.103-1.58,7.589
			c-1.052,2.485-2.8,5.102-5.241,7.851c-2.442,2.75-6.499,6.522-12.172,11.317c-4.738,3.978-7.779,6.675-9.123,8.093
			c-1.346,1.418-2.457,2.844-3.334,4.277H1574.943z"/>
		<path d="M1595.559,1175.018c-3.275-1.199-5.702-2.91-7.281-5.132c-1.578-2.223-2.368-4.883-2.368-7.983
			c0-4.678,1.681-8.612,5.044-11.799c3.363-3.187,7.836-4.781,13.422-4.781c5.614,0,10.132,1.629,13.553,4.891
			c3.422,3.26,5.132,7.23,5.132,11.908c0,2.982-0.783,5.578-2.347,7.786c-1.565,2.208-3.941,3.911-7.128,5.11
			c3.948,1.287,6.952,3.363,9.014,6.228c2.061,2.867,3.092,6.288,3.092,10.264c0,5.498-1.946,10.118-5.834,13.861
			c-3.89,3.744-9.008,5.615-15.352,5.615c-6.346,0-11.464-1.879-15.352-5.636c-3.89-3.757-5.834-8.445-5.834-14.059
			c0-4.181,1.06-7.683,3.18-10.506C1588.621,1177.965,1591.64,1176.042,1595.559,1175.018z M1591.436,1191.335
			c0,2.253,0.534,4.43,1.602,6.536c1.067,2.106,2.654,3.736,4.758,4.891c2.106,1.156,4.371,1.733,6.8,1.733
			c3.772,0,6.886-1.213,9.342-3.64c2.457-2.427,3.685-5.513,3.685-9.256c0-3.801-1.266-6.945-3.794-9.431
			c-2.531-2.485-5.696-3.727-9.497-3.727c-3.714,0-6.792,1.228-9.233,3.684C1592.657,1184.58,1591.436,1187.651,1591.436,1191.335z
			 M1593.981,1161.639c0,3.043,0.979,5.527,2.939,7.457c1.959,1.93,4.503,2.896,7.632,2.896c3.041,0,5.534-0.958,7.479-2.873
			c1.945-1.915,2.917-4.262,2.917-7.04c0-2.895-1.002-5.33-3.004-7.303c-2.003-1.974-4.496-2.961-7.479-2.961
			c-3.012,0-5.511,0.964-7.5,2.895C1594.974,1156.64,1593.981,1158.95,1593.981,1161.639z"/>
		<path d="M1633.896,1154.008v-7.589h41.626v6.141c-4.094,4.358-8.151,10.148-12.172,17.37c-4.021,7.224-7.128,14.65-9.32,22.283
			c-1.58,5.38-2.588,11.273-3.027,17.677h-8.116c0.088-5.059,1.082-11.17,2.984-18.336c1.9-7.163,4.627-14.072,8.18-20.724
			c3.553-6.653,7.332-12.26,11.339-16.822H1633.896z"/>
	</g>
</g>
</svg>