<?xml version="1.0" encoding="UTF-8"?>
<svg xmlns="http://www.w3.org/2000/svg"
     viewBox="260 140 310 310">
  <g>
    <path fill="none" d="M514.61,456.59c-1.46,0-2.94-.13-4.4-.39l-227.4-40.09c-6.63-1.18-12.4-4.85-16.26-10.37-3.86-5.51-5.34-12.19-4.17-18.82l40.1-227.4c2.13-12.07,12.55-20.82,24.79-20.82,1.46,0,2.94.13,4.39.39l227.41,40.09c6.63,1.17,12.4,4.85,16.26,10.36,3.86,5.52,5.35,12.2,4.17,18.83l-40.1,227.4c-2.12,12.06-12.55,20.82-24.78,20.82Z"/>
    <path fill="#d81e04" d="M511.29,450.12l-227.4-40.1c-10.34-1.82-17.25-11.69-15.42-22.03l40.1-227.4c1.82-10.34,11.68-17.26,22.02-15.43l227.4,40.1c10.34,1.83,17.24,11.69,15.42,22.03l-40.1,227.4c-1.83,10.34-11.69,17.24-22.03,15.43Z"/>
    <path fill="#fff" d="M337.17,280.72c4.95,0,9.26-4.35,9.26-9.28,0-5.57-4.32-9.29-9.27-9.29-5.58,0-9.93,3.72-9.93,9.29,0,4.93,4.35,9.28,9.93,9.28ZM483.29,248.53h13.62l15.48,23.53c0-3.11-.62-5.57-.62-7.45v-16.08h14.24v45.19h-13.63l-15.48-23.53c.63,2.49.63,4.96.62,6.82v16.71h-14.24v-45.19ZM444.91,248.53h31.56v11.14h-17.35s0,5.58,0,5.58h9.29v10.52h-9.29v5.56h19.2v12.39s-33.41,0-33.41,0v-45.19ZM409.59,248.53h16.12v32.8s14.24,0,14.24,0v12.39h-30.36v-45.19ZM365.63,248.53h18.58c11.78,0,17.97,5.58,17.97,15.48,0,6.17-3.71,10.52-8.67,11.14l11.77,18.57h-17.96l-7.42-14.85v14.85h-14.26v-45.19ZM337.17,247.29c12.99,0,23.52,11.13,23.52,24.15s-10.54,23.53-23.52,23.53c-13.63,0-24.17-10.54-24.17-23.53,0-13.02,10.54-24.15,24.18-24.15ZM387.93,264.61c0-3.09-1.86-4.95-5.57-4.95h-2.47v9.92s2.47,0,2.47,0c3.71,0,5.57-1.87,5.57-4.98ZM347.73,323.21c.28,2.77.24,6.96,0,9.74-.64,8.12-6.09,13.91-14.95,13.91-2.66,0-5.72-.76-7.64-1.63v7.46c0,2.64-2.13,4.73-4.63,4.73-2.68,0-4.64-2.1-4.64-4.73v-36.58c0-1.01.27-1.69,1.16-2.3,2.23-1.59,7.6-4.36,14.57-4.36,8.96,0,15.4,5.65,16.13,13.77ZM325.14,320.26v16.08c1.11.74,3.86,1.68,6.67,1.68,4.19,0,6.5-2.47,6.76-6.49.17-2.44.17-4.64,0-6.67-.34-3.9-2.71-6.6-7.08-6.6-2.23,0-5.11,1.03-6.36,2ZM383.19,323.21v16.95c0,1.52-.41,2.37-1.62,3.21-1.9,1.25-6.63,3.65-14.28,3.65-9.84,0-14.27-5.34-14.27-11.71,0-5.78,3.95-10.99,13.49-10.99,3.01,0,5.48.37,7.85,1.05v-2.47c0-3.38-1.66-5.24-6.33-5.24-2.13,0-4.56.57-6.39,1.22-.95.26-1.69.4-2.4.4-2.21,0-4-1.83-4-3.89,0-1.38.5-3.11,3.01-4.13,1.86-.8,5.55-1.82,9.77-1.82,9.85,0,15.16,4.23,15.16,13.76ZM361.75,335.11c0,3.09,2.4,4.57,6.06,4.57,2.97,0,5.37-1.04,6.56-1.86v-6.26c-2.3-.66-4.23-1.04-6.64-1.04-4.09,0-5.99,2.09-5.99,4.59ZM420.69,319.69c0,2.47-2.04,4.46-4.5,4.46-1.46,0-2.94-.89-3.66-2.07-1.36-2.67-3.72-3.83-6.67-3.83-4.16,0-6.73,2.44-7.14,6.47-.16,1.82-.13,5,.04,6.8.41,4.15,3.01,6.66,7.1,6.66,2.94,0,5.31-1.15,6.67-3.83.71-1.18,2.2-2.06,3.66-2.06,2.47,0,4.5,2,4.5,4.46,0,4.91-6.33,10.25-15.1,10.25s-15.32-6.09-16-14.27c-.24-2.44-.24-6.46,0-9.4.51-8.08,7.18-13.9,16-13.9s15.1,5.34,15.1,10.25ZM453.75,315.15c0,1.18-.41,2.54-1.39,3.73l-16.1,18.87h12.79c2.64,0,4.74,1.69,4.74,4.34,0,2.5-2.1,4.29-4.74,4.29h-19.05c-3.34,0-5.47-2.13-5.47-5.03,0-1.18.4-2.57,1.38-3.73l16.11-18.97h-11.98c-2.56,0-4.73-1.59-4.73-4.2,0-2.54,2.1-4.37,4.73-4.37h18.24c3.35,0,5.48,2.13,5.48,5.07ZM469.29,314.21v9.46h.67c1.45,0,2.06-.21,3.39-1.55l10.08-10.45c1.25-1.35,2.5-1.82,3.75-1.82,2.58,0,4.64,2.09,4.64,4.62,0,1.19-.34,2.3-1.63,3.55l-10.21,9.74,10.41,10.79c1.12,1.18,1.55,2.3,1.55,3.52,0,2.53-2.06,4.59-4.59,4.59-1.29,0-2.58-.5-3.52-1.59l-10.28-11.09c-1.28-1.39-1.93-1.52-3.25-1.52h-1.01v9.47c0,2.64-2,4.77-4.63,4.77-2.47,0-4.6-2.2-4.6-4.78v-27.73c0-2.68,1.96-4.77,4.6-4.77s4.63,2.09,4.63,4.77ZM526.01,323.21v16.95c0,1.52-.4,2.37-1.62,3.21-1.9,1.25-6.63,3.65-14.28,3.65-9.84,0-14.28-5.34-14.28-11.71,0-5.78,3.96-10.99,13.5-10.99,3.02,0,5.49.37,7.85,1.05v-2.47c0-3.38-1.66-5.24-6.33-5.24-2.13,0-4.56.57-6.39,1.22-.95.26-1.69.4-2.4.4-2.2,0-4-1.83-4-3.89,0-1.38.51-3.11,3.02-4.13,1.86-.8,5.54-1.82,9.77-1.82,9.84,0,15.16,4.23,15.16,13.76ZM504.57,335.11c0,3.09,2.4,4.58,6.06,4.58,2.97,0,5.38-1.05,6.56-1.87v-6.26c-2.3-.67-4.23-1.04-6.63-1.04-4.09,0-5.99,2.1-5.99,4.59Z"/>
  </g>
</svg>
